<svg xmlns="http://www.w3.org/2000/svg" width="268" height="70" fill="none" viewBox="0 0 268 70">
    <path fill="#231F20" d="M80.23 53.523v-6.03c4.631 1.507 9.37 2.26 14.108 2.26 6.354 0 9.477-1.938 9.477-5.707 0-3.554-2.154-5.277-6.57-5.277h-5.707c-8.508 0-12.815-3.877-12.815-11.738 0-7.539 5.492-11.308 16.477-11.308 4.738 0 9.369.646 14.107 1.939v6.03c-4.631-1.507-9.369-2.261-14.107-2.261-6.57 0-9.908 1.938-9.908 5.707 0 3.554 2.046 5.277 6.246 5.277h5.708c9.046 0 13.569 3.877 13.569 11.739 0 7.538-5.492 11.307-16.477 11.307-4.738-.107-9.477-.753-14.108-1.938zM112.431 55.354V1.508h7v18.63c3.338-2.907 7.43-4.307 12.277-4.307 9.907 0 14.861 4.954 14.861 14.754v24.877h-7V30.369c0-5.923-2.908-8.83-8.831-8.83-3.984 0-7.753 1.723-11.415 5.061v28.754h-6.892zM156.368 1.508v6.569h-7v-6.57h7zm0 14.323v39.63h-7v-39.63h7zM160.677 17.446c5.277-1.077 10.661-1.615 16.261-1.615 12.708 0 19.062 6.246 19.062 18.846 0 13.892-6.354 20.785-19.169 20.785-3.123 0-6.247-.647-9.154-1.939v16.262h-7V17.446zm7 29.831c2.692 1.4 5.815 2.046 9.154 2.046 8.184 0 12.277-4.954 12.277-14.861 0-8.616-4.093-12.924-12.277-12.924-3.554 0-6.57.324-9.262.862v24.877h.108zM197.399 43.4c0-8.077 5.385-12.17 16.047-12.17 3.446 0 6.892.216 10.338.755v-3.77c0-4.523-3.554-6.784-10.662-6.784-4.092 0-8.292.646-12.492 1.938v-5.707c4.308-1.293 8.4-1.939 12.492-1.939 11.739 0 17.662 4.092 17.662 12.277v27.246h-3.877l-2.369-3.877c-3.985 2.585-8.292 3.877-12.923 3.877-9.477.108-14.216-3.877-14.216-11.846zm16.047-6.462c-6.031 0-9.047 2.154-9.047 6.462s2.37 6.462 7.216 6.462 8.938-1.293 12.277-3.877v-8.293c-3.554-.538-7-.754-10.446-.754z"/>
    <path fill="#231F20" d="M229.601 15.83h7.538l11.2 30.909 11.523-30.908h7.431l-16.369 40.708c-2.908 7.215-7.323 11.63-13.139 13.461l-2.692-4.954c4.415-1.938 7.646-5.061 9.692-9.477l-15.184-39.738z"/>
    <path fill="#027AD3" d="M0 60.523c0 2.477 2.046 4.63 4.63 4.63h58.585c2.477 0 4.631-2.045 4.631-4.63v-56C67.738 2.046 65.692 0 63.108 0H4.63C2.046 0 0 2.046 0 4.63v55.893z"/>
    <path fill="#fff" d="M57.399 13.246c0-1.83-1.508-3.338-3.339-3.338H13.568c-3.015 0-3.338 1.507-3.338 3.338v9.262c0 1.83 1.507 3.338 3.338 3.338 1.83 0 3.338-1.508 3.338-3.338v-2.693c0-1.83 0-3.338 3.339-3.338h33.923c1.83 0 3.23-1.508 3.23-3.23zM54.17 28.538H22.939c-1.83 0-3.338 1.508-3.338 3.339 0 1.83 1.507 3.338 3.338 3.338h24.662c3.338 0 3.338 1.508 3.338 3.339v7.107c0 1.831.43 3.339-3.338 3.339H22.939c-1.83 0-3.338 1.508-3.338 3.339 0 1.83 1.507 3.338 3.338 3.338h31.23c3.232 0 3.34-1.508 3.34-3.338V32.092c-.108-2.046.215-3.553-3.34-3.553z"/>
    <path fill="#FBCE33" d="M10.338 31.77c0 1.83 1.508 3.338 3.338 3.338 1.831 0 3.339-1.508 3.339-3.339 0-1.83-1.508-3.338-3.339-3.338-1.938.107-3.338 1.615-3.338 3.338zM10.338 52.123c0 1.83 1.508 3.339 3.338 3.339 1.831 0 3.339-1.508 3.339-3.339 0-1.83-1.508-3.338-3.339-3.338-1.938 0-3.338 1.507-3.338 3.338zM50.83 22.508c0 1.83 1.508 3.338 3.339 3.338 1.83 0 3.338-1.508 3.338-3.338 0-1.831-1.508-3.339-3.338-3.339-1.831 0-3.339 1.508-3.339 3.339z"/>
</svg>
